IKResults-ET1
version=1
nRows=24
nColumns=24
inDegrees=yes

Units are S.I. units (second, meters, Newtons, ...)
If the header above contains a line with 'inDegrees', this indicates whether rotational values are in degrees (yes) or radians (no).

endheader
time	pelvis_tilt	pelvis_list	pelvis_rotation	pelvis_tx	pelvis_ty	pelvis_tz	hip_flexion_r	hip_adduction_r	hip_rotation_r	knee_angle_r	ankle_angle_r	subtalar_angle_r	mtp_angle_r	hip_flexion_l	hip_adduction_l	hip_rotation_l	knee_angle_l	ankle_angle_l	subtalar_angle_l	mtp_angle_l	lumbar_extension	lumbar_bending	lumbar_rotation
      3.26000000	      3.29896678	      4.81130284	    182.73922484	      3.96370765	      1.00132198	     -0.18234576	      8.96088290	      7.39071641	     -0.98317117	     -8.66915486	     12.62813294	     10.55800191	      0.00000000	     17.32362134	     -6.31438712	      2.91176332	    -65.16229443	     -0.73778716	     -0.05887903	      0.00000000	    -15.39740667	      3.49814401	      2.64725237
      3.27000000	      3.19593956	      4.59187319	    182.48345756	      3.95298094	      1.00232674	     -0.18339561	      8.22622661	      7.28441790	     -1.13652694	     -8.83055321	     12.19004738	     10.34236891	      0.00000000	     18.63396420	     -6.01985293	      2.79214949	    -64.99724885	      0.93838767	     -0.00103405	      0.00000000	    -15.61358531	      3.16765015	      3.05603286
      3.28000000	      3.08571059	      4.40520620	    182.20238265	      3.94221896	      1.00333173	     -0.18444538	      7.38968276	      7.17116799	     -1.06948636	     -8.63831587	     12.18157037	     10.72736715	      0.00000000	     19.89086621	     -5.77950649	      2.68193498	    -64.59555683	      2.52889263	      0.35942379	      0.00000000	    -15.78389271	      2.85937525	      3.33298075
      3.29000000	      3.00536753	      4.12234116	    181.91389438	      3.93148576	      1.00400902	     -0.18529303	      6.63251986	      6.96093207	     -1.03553194	     -8.76870615	     12.60400439	     11.49524619	      0.00000000	     21.15285766	     -5.42377258	      2.53555020	    -64.01911321	      4.15072459	      0.86425521	      0.00000000	    -15.94713577	      2.45455123	      3.60298874
      3.30000000	      2.93684639	      3.85465421	    181.64331688	      3.92084847	      1.00444266	     -0.18610425	      5.96023886	      6.76573420	     -1.16563828	     -8.87280551	     12.81240911	     11.84402933	      0.00000000	     22.41471537	     -5.07651181	      2.42476109	    -63.28694092	      5.71041839	      1.35315676	      0.00000000	    -16.09782425	      2.05290007	      3.83999439
      3.31000000	      2.84101296	      3.57027374	    181.34407390	      3.91011092	      1.00479535	     -0.18685605	      5.17843402	      6.54170133	     -1.07995792	     -9.04292974	     13.29487640	     12.56973881	      0.00000000	     23.58136749	     -4.71794495	      2.29716850	    -62.30021790	      7.07892623	      1.92961424	      0.00000000	    -16.28126817	      1.64322531	      4.10007694
      3.32000000	      2.74930641	      3.31574733	    181.09547725	      3.89944439	      1.00499059	     -0.18740440	      4.41547666	      6.32207106	     -0.98913605	     -9.13256511	     13.59127345	     12.92566361	      0.00000000	     24.74232453	     -4.38121756	      2.21678649	    -61.14059578	      8.26380859	      2.29910918	      0.00000000	    -16.47516109	      1.28301850	      4.35131921
      3.33000000	      2.60709975	      3.11373374	    180.84550688	      3.88868733	      1.00517161	     -0.18796262	      3.56469039	      6.16412346	     -0.96220670	     -9.12986361	     13.88313000	     13.30143534	      0.00000000	     25.79509357	     -4.12301146	      2.12051753	    -59.81169882	      9.11746987	      2.26776715	      0.00000000	    -16.71859990	      0.96395624	      4.62970204
      3.34000000	      2.50014118	      2.91570042	    180.62772126	      3.87801496	      1.00512873	     -0.18826268	      2.77139146	      5.98996444	     -0.95338016	     -9.16423983	     14.15497614	     13.43348986	      0.00000000	     26.82407133	     -3.81593081	      2.12833621	    -58.30080112	      9.70748081	      2.05540298	      0.00000000	    -16.93256047	      0.65970051	      4.73796569
      3.35000000	      2.26141856	      2.75493566	    180.36411257	      3.86696829	      1.00523301	     -0.18861839	      1.73631065	      5.87004807	     -0.63509424	     -9.04873743	     14.47195012	     13.60940020	      0.00000000	     27.52891179	     -3.57911114	      2.19150377	    -56.61470457	     10.84327190	      2.13695329	      0.00000000	    -17.34842841	      0.40984587	      5.09865036
      3.36000000	      2.21656835	      2.67856282	    180.27597259	      3.85648683	      1.00480299	     -0.18870764	      1.04468750	      5.83703558	     -0.48617991	     -9.20356629	     14.82343683	     13.46882323	      0.00000000	     28.69583244	     -3.41773864	      2.05442456	    -54.93615942	     10.77681527	      1.45980352	      0.00000000	    -17.52696739	      0.28603063	      5.34335188
      3.37000000	      2.13627784	      2.55561827	    180.00831495	      3.84581532	      1.00432935	     -0.18864738	      0.28962178	      5.72754492	     -0.13476982	     -9.26040146	     15.14916928	     13.41388344	      0.00000000	     29.60648227	     -3.23461837	      1.92110593	    -53.04925962	     11.01512636	      1.05583521	      0.00000000	    -17.77777398	      0.07373327	      5.47417600
      3.38000000	      2.01101906	      2.49256085	    179.82772410	      3.83451449	      1.00385711	     -0.18852280	     -0.63598095	      5.69872662	      0.19175501	     -9.10972574	     15.27768461	     13.03925768	      0.00000000	     30.27350669	     -3.05818236	      2.07436336	    -51.00293866	     11.38339742	      0.61935798	      0.00000000	    -18.04728467	     -0.00307427	      5.84217139
      3.39000000	      1.96374693	      2.40355207	    179.67418031	      3.82313709	      1.00327637	     -0.18836961	     -1.44192835	      5.64711662	      0.53471254	     -9.09225947	     15.60289278	     12.81917239	      0.00000000	     31.08134437	     -2.93562852	      1.77026744	    -48.71488870	     11.52298160	      0.39639296	      0.00000000	    -18.17426637	     -0.15474038	      5.94210542
      3.40000000	      1.97713942	      2.32323131	    179.51718629	      3.81160838	      1.00250941	     -0.18802497	     -2.25432504	      5.60752298	      1.13097088	     -8.89334187	     15.62613738	     11.96841114	      0.00000000	     31.76066165	     -2.79155871	      1.65373854	    -46.22197510	     11.60957939	      0.03894704	      0.00000000	    -18.25765315	     -0.23814086	      6.19989157
      3.41000000	      2.04121991	      2.20282173	    179.33740106	      3.79995093	      1.00151916	     -0.18766351	     -2.94694329	      5.49440927	      1.40293352	     -8.84675885	     15.94170214	     11.72710664	      0.00000000	     32.43224376	     -2.64961272	      1.46630306	    -43.73979708	     11.72875853	      0.04850625	      0.00000000	    -18.25967215	     -0.42750463	      6.27588568
      3.42000000	      2.14728928	      2.06306033	    179.17705191	      3.78810390	      1.00031414	     -0.18714741	     -3.59072976	      5.34059487	      1.66973472	     -8.85649752	     16.25111326	     11.52944078	      0.00000000	     33.07889498	     -2.47318850	      1.27681649	    -41.10081795	     11.55372325	      0.14942028	      0.00000000	    -18.20001475	     -0.55634029	      6.34206123
      3.43000000	      2.35061543	      1.89862955	    179.02408078	      3.77625151	      0.99885776	     -0.18658563	     -4.11909411	      5.16075364	      1.78625353	     -8.80670105	     16.49339383	     11.33378014	      0.00000000	     33.70031614	     -2.27518866	      1.05346478	    -38.26677021	     11.34309638	      0.29012037	      0.00000000	    -18.02666590	     -0.74266388	      6.39639303
      3.44000000	      2.51208739	      1.74894511	    178.85651073	      3.76405951	      0.99721832	     -0.18592398	     -4.73700765	      4.98606449	      2.09042706	     -8.78252588	     16.93595502	     11.09130372	      0.00000000	     34.27287899	     -2.13034452	      0.79306241	    -35.59288593	     11.37088920	      0.66564273	      0.00000000	    -17.83703531	     -0.92239575	      6.44830191
      3.45000000	      2.72808429	      1.60840479	    178.68540246	      3.75186295	      0.99547117	     -0.18530519	     -5.28459127	      4.81317056	      2.35907503	     -8.78848432	     17.25755303	     10.76305726	      0.00000000	     34.69631352	     -1.98718497	      0.53873506	    -32.56701697	     11.59141923	      1.19751367	      0.00000000	    -17.58912928	     -1.10908204	      6.50777053
      3.46000000	      2.94400164	      1.46297022	    178.43830762	      3.73964629	      0.99353258	     -0.18481421	     -5.80856936	      4.62680293	      2.60382810	     -8.81759489	     17.54181597	     10.52648758	      0.00000000	     35.15853879	     -1.91768608	      0.36112375	    -29.84135080	     12.23227930	      2.26534234	      0.00000000	    -17.38473117	     -1.23539174	      6.63449172
      3.47000000	      3.17349334	      1.33465551	    178.27088540	      3.72724966	      0.99152105	     -0.18408411	     -6.35103442	      4.45694219	      2.91518729	     -8.83587505	     17.81231969	     10.22043178	      0.00000000	     35.45765870	     -1.79432205	      0.22235355	    -26.81842724	     12.56944943	      2.99904258	      0.00000000	    -17.12659349	     -1.38887926	      6.70250987
      3.48000000	      3.35706336	      1.24103467	    178.06811734	      3.71458503	      0.98931837	     -0.18325029	     -6.91141409	      4.28008162	      2.90838846	     -8.92788158	     18.21150636	     10.33768508	      0.00000000	     35.76082395	     -1.72435549	      0.34127852	    -24.12266190	     13.02649262	      3.66011049	      0.00000000	    -16.88879532	     -1.50398206	      6.79239429
      3.49000000	      3.53710977	      1.15992478	    177.88063470	      3.70185896	      0.98708466	     -0.18237504	     -7.45742234	      4.11729805	      2.89260133	     -9.05736168	     18.57288515	     10.33086886	      0.00000000	     35.91077197	     -1.61081346	      0.63335207	    -21.32505331	     13.23205747	      3.78540668	      0.00000000	    -16.67198598	     -1.63063898	      6.86022014
